<svg width="30" height="30" fill="none" xmlns="http://www.w3.org/2000/svg"><path fill-rule="evenodd" clip-rule="evenodd" d="M21.5 3.643V6.5h-20V3.643A2.143 2.143 0 0 1 3.643 1.5h15.714A2.143 2.143 0 0 1 21.5 3.643Zm-3.571 0h-.715a.714.714 0 1 0 0 1.428h.715a.714.714 0 0 0 0-1.428Zm-3.572 0h-.714a.714.714 0 1 0 0 1.428h.714a.714.714 0 1 0 0-1.428ZM1.5 19.357V7.93H6V21.5H3.643A2.143 2.143 0 0 1 1.5 19.357ZM27.841 8.159c.422.422.659.994.659 1.591v3h-21v-3A2.25 2.25 0 0 1 9.75 7.5h16.5a2.25 2.25 0 0 1 1.591.659ZM24.75 9.75H24a.75.75 0 1 0 0 1.5h.75a.75.75 0 1 0 0-1.5Zm-3.75 0h-.75a.75.75 0 1 0 0 1.5H21a.75.75 0 1 0 0-1.5ZM7.5 26.25v-12h21v12a2.25 2.25 0 0 1-2.25 2.25H9.75a2.25 2.25 0 0 1-2.25-2.25Zm5.872-4.485h-2.77v5.175h2.77v-5.175Zm4.526-1.84h-2.771v7.015h2.77v-7.015Zm4.525-3.382h-2.771V26.94h2.77V16.543Zm4.525 5.756h-2.77v4.641h2.77V22.3Z" fill="#fff"/></svg>