<svg width="30" height="30" fill="none" xmlns="http://www.w3.org/2000/svg"><g clip-path="url(#a)" fill="#fff"><path d="M5.332 17.637v-1.758H7.09V8.848H5.332V7.09H3.574v1.758H1.816v7.03h1.758v1.759h1.758Zm7.031-3.516v-1.758h1.758V5.332h-1.758V3.574h-1.758v1.758H8.848v7.031h1.757v1.758h1.758Zm7.032-1.758v-1.758h1.757v-7.03h-1.758v-1.76h-1.757v1.758h-1.758v7.031h1.758v1.758h1.758ZM26.425 0h-1.757v1.758H22.91v7.09h1.758v1.757h1.758V8.848h1.758v-7.09h-1.758V0Zm1.952 17.161.946-4.048-3.807-1.673-.707 1.608 1.424.626-4.41 2.205h-7.03L7.76 19.395H.879v1.757h7.297l7.032-3.515h7.031l4.78-2.39-.354 1.514 1.712.4Z"/><path d="M28.242 19.395H22.91v8.847h-1.758v-8.848H15.88v8.848h-1.76V20.61l-5.273 2.637v4.996H7.09V22.91H1.758v5.332H0V30h30v-1.758h-1.758v-8.848Z"/></g><defs><clipPath id="a"><path fill="#fff" d="M0 0h30v30H0z"/></clipPath></defs></svg>