<svg width="24" height="24" fill="none" xmlns="http://www.w3.org/2000/svg"><path fill-rule="evenodd" clip-rule="evenodd" d="M22.004 10.003A8 8 0 0 0 6.71 6.71a8.002 8.002 0 1 0 10.586 10.586 8.002 8.002 0 0 0 4.708-7.293ZM9.52 6.016a6 6 0 1 1 8.47 8.471 8 8 0 0 0-8.47-8.471ZM7 17.333h2.118V19h1.411v-1.667h.706c.975 0 1.765-.932 1.765-2.083a2.33 2.33 0 0 0-.353-1.25A2.33 2.33 0 0 0 13 12.75c0-1.15-.79-2.083-1.765-2.083h-.706V9H9.118v1.667H7v6.666Zm1.412-1.666v-.834h2.823c.195 0 .353.187.353.417 0 .23-.158.417-.353.417H8.412Zm0-2.5v-.834h2.823c.195 0 .353.187.353.417 0 .23-.158.417-.353.417H8.412Z" fill="#fff"/></svg>