<svg width="30" height="30" fill="none" xmlns="http://www.w3.org/2000/svg"><g clip-path="url(#a)"><path d="M.078 17.509h2.77V29.94H.079V17.51Zm4.525 7.256h2.771v5.175h-2.77v-5.175Zm4.525-1.84H11.9v7.015H9.13v-7.015Zm4.526-6.382h2.77V29.94h-2.77V16.543Zm4.525-4.243h2.77v17.64h-2.77V12.3Zm4.525 9.836h2.77v7.804h-2.77v-7.804Zm4.525-7.589H30V29.94h-2.77V14.547ZM3.758 9.701c.156.47.461 1.326.906 2.546a1.873 1.873 0 0 0 1.773 1.239c.769 0 1.45-.457 1.743-1.171.482-1.177.82-2.056 1.006-2.614a1.232 1.232 0 0 1 1.17-.844h1.513a5.111 5.111 0 0 0 4.822-3.425l.896-2.572c.266-.762.926-1.04 1.455-1.046.529-.007 1.195.258 1.477 1.014l2.417 6.476a1.357 1.357 0 0 0 2.053.705c.237-.16.418-.39.516-.66.754-2.058 1.195-3.287 1.308-3.652a.66.66 0 0 1 .634-.466h2.495V3.477h-2.495a2.406 2.406 0 0 0-2.309 1.699 98.67 98.67 0 0 1-.913 2.564l-2.062-5.525A3.28 3.28 0 0 0 19.023.06a3.28 3.28 0 0 0-3.093 2.223l-.896 2.571a3.355 3.355 0 0 1-3.165 2.249h-1.512A2.984 2.984 0 0 0 7.52 9.147c-.17.514-.505 1.38-.965 2.503a.116.116 0 0 1-.12.081h-.003a.117.117 0 0 1-.12-.086 111.07 111.07 0 0 1-.89-2.498 2.984 2.984 0 0 0-2.836-2.044H0v1.754h2.587a1.232 1.232 0 0 1 1.17.844Z" fill="#fff"/></g><defs><clipPath id="a"><path fill="#fff" d="M0 0h30v30H0z"/></clipPath></defs></svg>