<svg width="24" height="24" fill="none" xmlns="http://www.w3.org/2000/svg"><path fill-rule="evenodd" clip-rule="evenodd" d="M13 16H4V5h16v2h2V4.007A.998.998 0 0 0 21.008 3H2.992C2.455 3 2 3.451 2 4.007v12.985A.998.998 0 0 0 2.992 18H11v2H7v2h6v-6Z" fill="#fff"/><path d="M15.5 10v10h7V10h-7Zm-.786-2h8.572c.394 0 .714.313.714.7v12.6c0 .387-.32.7-.714.7h-8.572a.707.707 0 0 1-.714-.7V8.7c0-.387.32-.7.714-.7ZM19 17.5c.395 0 .714.313.714.7 0 .387-.32.7-.714.7a.707.707 0 0 1-.714-.7c0-.387.32-.7.714-.7Z" fill="#fff"/></svg>