<svg width="20" height="20" fill="none" xmlns="http://www.w3.org/2000/svg"><path d="M.215 12.06a9.945 9.945 0 0 1 .001-4.12c1.11.131 2.079-.237 2.396-1.001.316-.765-.109-1.71-.986-2.402a9.945 9.945 0 0 1 2.912-2.914c.693.878 1.638 1.303 2.403.986.765-.317 1.133-1.286 1.002-2.396a9.945 9.945 0 0 1 4.12 0c-.131 1.11.236 2.08 1.001 2.396.765.317 1.71-.108 2.402-.985a9.945 9.945 0 0 1 2.914 2.912c-.878.692-1.303 1.638-.986 2.403.317.765 1.286 1.132 2.396 1.001a9.944 9.944 0 0 1 0 4.12c-1.11-.13-2.08.237-2.396 1.002-.317.764.108 1.71.985 2.402a9.947 9.947 0 0 1-2.912 2.914c-.693-.878-1.638-1.304-2.403-.987-.765.317-1.132 1.286-1.001 2.397a9.944 9.944 0 0 1-4.12-.001c.13-1.11-.237-2.079-1.002-2.396-.765-.317-1.71.109-2.402.986a9.944 9.944 0 0 1-2.914-2.913c.878-.692 1.303-1.637.987-2.402-.317-.765-1.286-1.133-2.397-1.002Zm1.788-1.85c1.1.305 2.007 1.002 2.456 2.086.45 1.085.3 2.22-.262 3.212.097.102.196.201.298.298.993-.563 2.127-.712 3.212-.262C8.79 15.992 9.487 16.9 9.792 18c.14.004.28.004.42 0 .305-1.1 1.002-2.007 2.087-2.457 1.084-.449 2.219-.3 3.212.263.102-.097.2-.196.297-.298-.562-.993-.711-2.127-.262-3.212.45-1.084 1.357-1.781 2.456-2.085.004-.14.004-.28 0-.421-1.1-.304-2.007-1.001-2.456-2.086-.45-1.084-.3-2.22.262-3.212a7.852 7.852 0 0 0-.297-.297c-.993.562-2.128.711-3.212.262C11.214 4.007 10.517 3.1 10.213 2a7.94 7.94 0 0 0-.42 0C9.487 3.1 8.79 4.008 7.706 4.457c-1.085.45-2.22.3-3.213-.262-.101.096-.2.195-.297.297.563.993.712 2.128.262 3.212C4.01 8.79 3.103 9.486 2.003 9.79c-.004.14-.004.28 0 .42Zm8 2.79a3 3 0 1 1 0-6 3 3 0 0 1 0 6Zm0-2a1 1 0 1 0 0-2 1 1 0 0 0 0 2Z" fill="#fff"/></svg>